# xmcd
#
# Track frame offsets: 
#        150
#        18530
#        34625
#        49803
#        65493
#        82507
#        96853
#        111032
#        127790
#        144549
#        158070
#        169422
#        187539
#        204226
#        221654
#
# Disc length: 3183 seconds
#
# Revision: 0
# Processed by: cddbd v1.5.2PL0 Copyright (c) Steve Scherf et al.
# Submitted via: ExactAudioCopyFreeDBPlugin 1.0
#
DISCID=bb0c6d0f
DTITLE=徐良 - 网络三大才子
DYEAR=1900
DGENRE=
TTITLE0=电话里的秘密
TTITLE1=后会无期
TTITLE2=友情出演
TTITLE3=考试什么的都去死吧
TTITLE4=不良
TTITLE5=两个傻瓜
TTITLE6=不写情歌
TTITLE7=飞机场
TTITLE8=恋爱小说
TTITLE9=你要的生活
TTITLE10=微笑
TTITLE11=美瞳
TTITLE12=树屋
TTITLE13=不好听
TTITLE14=听在昨天
EXTD=
EXTT0=
EXTT1=
EXTT2=
EXTT3=
EXTT4=
EXTT5=
EXTT6=
EXTT7=
EXTT8=
EXTT9=
EXTT10=
EXTT11=
EXTT12=
EXTT13=
EXTT14=
PLAYORDER=
